<?xml version="1.0" encoding="UTF-8" standalone="no"?>
<!-- Created with Inkscape (http://www.inkscape.org/) -->

<svg
   width="39.158283mm"
   height="39.158283mm"
   viewBox="0 0 39.158283 39.158283"
   version="1.1"
   id="svg5"
   sodipodi:docname="qr-code.svg"
   inkscape:version="1.2.1 (9c6d41e410, 2022-07-14)"
   xmlns:inkscape="http://www.inkscape.org/namespaces/inkscape"
   xmlns:sodipodi="http://sodipodi.sourceforge.net/DTD/sodipodi-0.dtd"
   xmlns="http://www.w3.org/2000/svg"
   xmlns:svg="http://www.w3.org/2000/svg">
  <sodipodi:namedview
     id="namedview7"
     pagecolor="#ffffff"
     bordercolor="#000000"
     borderopacity="0.25"
     inkscape:showpageshadow="2"
     inkscape:pageopacity="0.0"
     inkscape:pagecheckerboard="0"
     inkscape:deskcolor="#d1d1d1"
     inkscape:document-units="mm"
     showgrid="false"
     inkscape:zoom="4.7572176"
     inkscape:cx="39.729106"
     inkscape:cy="62.011038"
     inkscape:window-width="2240"
     inkscape:window-height="1294"
     inkscape:window-x="-11"
     inkscape:window-y="-11"
     inkscape:window-maximized="1"
     inkscape:current-layer="layer1" />
  <defs
     id="defs2" />
  <g
     inkscape:label="Layer 1"
     inkscape:groupmode="layer"
     id="layer1"
     transform="translate(-124.589,-229.672)">
    <rect
       x="124.589"
       y="229.672"
       width="39.158283"
       height="39.158283"
       style="fill:#222222;stroke:none;stroke-width:0.264583;fill-opacity:1"
       id="rect192" />
    <path
       d="m 155.17479,264.59696 h -2.96332 c -0.0584,0 -0.10584,-0.0474 -0.10584,-0.10584 v -1.90499 c 0,-0.0585 0.0474,-0.10584 0.10584,-0.10584 h 0.84666 c 0.0584,0 0.10583,-0.0474 0.10583,-0.10583 v -0.84667 c 0,-0.0584 0.0474,-0.10583 0.10584,-0.10583 h 1.90499 c 0.0584,0 0.10584,0.0474 0.10584,0.10583 v 0.84667 c 0,0.0584 0.0474,0.10583 0.10583,0.10583 h 0.84667 c 0.0585,0 0.10583,-0.0474 0.10583,-0.10583 v -0.84667 c 0,-0.0584 0.0474,-0.10583 0.10583,-0.10583 h 1.905 c 0.0584,0 0.10583,-0.0474 0.10583,-0.10583 v -0.84667 c 0,-0.0585 0.0474,-0.10583 0.10584,-0.10583 h 0.84666 c 0.0584,0 0.10584,0.0474 0.10584,0.10583 v 2.96333 c 0,0.0584 -0.0474,0.10583 -0.10584,0.10583 h -0.84666 c -0.0585,0 -0.10584,-0.0474 -0.10584,-0.10583 v -0.84666 c 0,-0.0585 -0.0474,-0.10584 -0.10583,-0.10584 h -0.84666 c -0.0584,0 -0.10584,0.0474 -0.10584,0.10584 v 0.84666 c 0,0.0584 -0.0474,0.10583 -0.10583,0.10583 h -1.905 c -0.0584,0 -0.10583,0.0474 -0.10583,0.10584 v 0.84666 c 0,0.0584 -0.0474,0.10584 -0.10584,0.10584 z m -4.23332,0 h -0.84667 c -0.0584,0 -0.10583,-0.0474 -0.10583,-0.10584 v -0.84666 c 0,-0.0584 0.0474,-0.10584 0.10583,-0.10584 h 0.84667 c 0.0584,0 0.10583,0.0474 0.10583,0.10584 v 0.84666 c 0,0.0584 -0.0474,0.10584 -0.10583,0.10584 z m -5.29166,0 h -0.84667 c -0.0585,0 -0.10583,-0.0474 -0.10583,-0.10584 v -0.84666 c 0,-0.0584 -0.0474,-0.10584 -0.10584,-0.10584 h -0.95249 v -0.95249 c 0,-0.0585 -0.0474,-0.10584 -0.10584,-0.10584 h -0.84666 c -0.0584,0 -0.10584,-0.0474 -0.10584,-0.10583 v -2.01083 h 0.9525 c 0.0584,0 0.10584,0.0474 0.10584,0.10583 v 0.84667 c 0,0.0584 0.0474,0.10583 0.10583,0.10583 h 0.84666 c 0.0585,0 0.10584,-0.0474 0.10584,-0.10583 v -1.905 c 0,-0.0584 0.0474,-0.10583 0.10583,-0.10583 h 0.84667 c 0.0584,0 0.10583,-0.0474 0.10583,-0.10584 v -0.84666 c 0,-0.0584 -0.0474,-0.10584 -0.10583,-0.10584 h -1.905 c -0.0584,0 -0.10583,-0.0474 -0.10583,-0.10583 v -0.84666 c 0,-0.0584 -0.0474,-0.10584 -0.10584,-0.10584 h -0.84666 c -0.0584,0 -0.10584,0.0474 -0.10584,0.10584 v 0.84666 c 0,0.0585 -0.0474,0.10583 -0.10583,0.10583 h -0.84666 c -0.0584,0 -0.10584,0.0474 -0.10584,0.10584 v 0.9525 h -1.05833 v -0.9525 c 0,-0.0584 -0.0474,-0.10584 -0.10583,-0.10584 h -0.84667 c -0.0584,0 -0.10583,-0.0474 -0.10583,-0.10583 v -0.84666 c 0,-0.0584 0.0474,-0.10584 0.10583,-0.10584 h 1.905 c 0.0584,0 0.10583,-0.0474 0.10583,-0.10583 v -0.84667 c 0,-0.0584 -0.0474,-0.10583 -0.10583,-0.10583 h -0.84667 c -0.0584,0 -0.10583,-0.0474 -0.10583,-0.10583 v -0.84667 c 0,-0.0584 -0.0474,-0.10583 -0.10583,-0.10583 h -0.9525 v -2.01083 c 0,-0.0584 0.0474,-0.10584 0.10583,-0.10584 h 0.9525 v 0.9525 c 0,0.0584 0.0474,0.10584 0.10583,0.10584 h 0.9525 v 0.95249 c 0,0.0584 0.0474,0.10584 0.10584,0.10584 h 0.95249 v 0.9525 c 0,0.0584 0.0474,0.10583 0.10584,0.10583 h 0.84666 c 0.0584,0 0.10584,-0.0474 0.10584,-0.10583 v -0.84667 c 0,-0.0584 -0.0474,-0.10583 -0.10584,-0.10583 h -0.9525 v -1.05833 h 2.01083 c 0.0585,0 0.10584,-0.0474 0.10584,-0.10584 v -1.90499 c 0,-0.0585 -0.0474,-0.10584 -0.10584,-0.10584 h -0.84666 c -0.0584,0 -0.10583,0.0474 -0.10583,0.10584 v 0.84666 c 0,0.0584 -0.0474,0.10583 -0.10584,0.10583 h -0.9525 v -0.95249 c 0,-0.0585 -0.0474,-0.10584 -0.10583,-0.10584 h -0.84666 c -0.0584,0 -0.10584,0.0474 -0.10584,0.10584 v 0.95249 h -1.05833 v -2.11666 h 0.9525 c 0.0584,0 0.10583,-0.0474 0.10583,-0.10583 v -0.84667 c 0,-0.0585 0.0474,-0.10583 0.10584,-0.10583 h 0.84666 c 0.0585,0 0.10583,0.0474 0.10583,0.10583 v 0.84667 c 0,0.0584 0.0474,0.10583 0.10584,0.10583 h 3.06916 v 2.01083 c 0,0.0584 0.0474,0.10583 0.10583,0.10583 h 0.84667 c 0.0585,0 0.10583,0.0474 0.10583,0.10584 v 1.90499 c 0,0.0584 0.0474,0.10584 0.10584,0.10584 h 0.84666 c 0.0584,0 0.10583,0.0474 0.10583,0.10583 v 0.9525 h -2.11666 v -0.9525 c 0,-0.0584 -0.0474,-0.10583 -0.10583,-0.10583 h -0.84667 c -0.0585,0 -0.10583,0.0474 -0.10583,0.10583 v 0.84667 c 0,0.0584 0.0474,0.10583 0.10583,0.10583 h 0.9525 v 0.9525 c 0,0.0584 0.0474,0.10583 0.10583,0.10583 h 1.905 c 0.0584,0 0.10583,-0.0474 0.10583,-0.10583 v -0.9525 h 1.05834 v 0.9525 c 0,0.0584 0.0474,0.10583 0.10583,0.10583 h 0.84666 c 0.0584,0 0.10584,-0.0474 0.10584,-0.10583 v -0.84667 c 0,-0.0584 -0.0474,-0.10583 -0.10584,-0.10583 h -0.95249 v -0.9525 c 0,-0.0584 0.0474,-0.10583 0.10583,-0.10583 h 4.02166 c 0.0584,0 0.10583,-0.0474 0.10583,-0.10584 v -1.90499 c 0,-0.0584 0.0474,-0.10584 0.10584,-0.10584 h 0.9525 v 2.01083 c 0,0.0584 0.0474,0.10584 0.10583,0.10584 h 0.84666 c 0.0584,0 0.10584,-0.0474 0.10584,-0.10584 v -2.01083 h 1.05833 v 0.9525 c 0,0.0584 0.0474,0.10584 0.10583,0.10584 h 0.84667 c 0.0584,0 0.10583,0.0474 0.10583,0.10583 v 0.84666 c 0,0.0584 0.0474,0.10584 0.10584,0.10584 h 0.84666 c 0.0584,0 0.10583,0.0474 0.10583,0.10583 v 0.84667 c 0,0.0584 -0.0474,0.10583 -0.10583,0.10583 h -1.905 c -0.0585,0 -0.10583,0.0474 -0.10583,0.10583 v 1.905 c 0,0.0585 -0.0474,0.10583 -0.10583,0.10583 h -0.84667 c -0.0584,0 -0.10583,0.0474 -0.10583,0.10584 v 0.84666 c 0,0.0584 0.0474,0.10584 0.10583,0.10584 h 0.84667 c 0.0585,0 0.10583,0.0474 0.10583,0.10583 v 0.84666 c 0,0.0584 -0.0474,0.10584 -0.10583,0.10584 h -6.13833 c -0.0584,0 -0.10583,0.0474 -0.10583,0.10583 v 0.9525 h -1.05833 v -3.06916 c 0,-0.0584 -0.0474,-0.10584 -0.10584,-0.10584 h -0.84666 c -0.0584,0 -0.10584,0.0474 -0.10584,0.10584 v 0.84666 c 0,0.0584 -0.0474,0.10584 -0.10583,0.10584 h -0.84666 c -0.0585,0 -0.10584,0.0474 -0.10584,0.10583 v 2.01083 h -0.9525 c -0.0584,0 -0.10583,0.0474 -0.10583,0.10583 v 0.84667 c 0,0.0584 0.0474,0.10583 0.10583,0.10583 h 0.9525 v 0.9525 c 0,0.0584 -0.0474,0.10583 -0.10583,0.10583 h -0.84667 c -0.0584,0 -0.10583,0.0474 -0.10583,0.10584 v 0.84666 c 0,0.0584 -0.0474,0.10584 -0.10583,0.10584 z m -2.11667,0 h -1.90499 c -0.0584,0 -0.10584,-0.0474 -0.10584,-0.10584 v -0.84666 c 0,-0.0584 0.0474,-0.10584 0.10584,-0.10584 h 2.01083 v 0.9525 c 0,0.0584 -0.0474,0.10584 -0.10584,0.10584 z m -3.17499,0 h -0.84667 c -0.0584,0 -0.10583,-0.0474 -0.10583,-0.10584 v -0.84666 c 0,-0.0584 -0.0474,-0.10584 -0.10584,-0.10584 h -0.84666 c -0.0584,0 -0.10583,0.0474 -0.10583,0.10584 v 0.84666 c 0,0.0584 -0.0474,0.10584 -0.10584,0.10584 h -0.84666 c -0.0585,0 -0.10584,-0.0474 -0.10584,-0.10584 v -1.90499 c 0,-0.0585 0.0474,-0.10584 0.10584,-0.10584 h 0.84666 c 0.0584,0 0.10584,-0.0474 0.10584,-0.10583 v -0.84667 c 0,-0.0584 -0.0474,-0.10583 -0.10584,-0.10583 h -0.84666 c -0.0585,0 -0.10584,-0.0474 -0.10584,-0.10583 v -1.905 c 0,-0.0584 0.0474,-0.10583 0.10584,-0.10583 h 0.84666 c 0.0584,0 0.10584,0.0474 0.10584,0.10583 v 0.84666 c 0,0.0584 0.0474,0.10584 0.10583,0.10584 h 0.9525 v 0.9525 c 0,0.0584 0.0474,0.10583 0.10583,0.10583 h 0.9525 v 3.06916 c 0,0.0584 -0.0474,0.10584 -0.10583,0.10584 z m -4.23333,0 h -7.19666 c -0.0584,0 -0.10583,-0.0474 -0.10583,-0.10584 v -7.19665 c 0,-0.0584 0.0474,-0.10584 0.10583,-0.10584 h 7.19666 c 0.0584,0 0.10583,0.0474 0.10583,0.10584 v 7.19665 c 0,0.0584 -0.0474,0.10584 -0.10583,0.10584 z m 12.69998,-1.05834 h -0.84666 c -0.0584,0 -0.10584,-0.0474 -0.10584,-0.10583 v -0.84666 c 0,-0.0585 -0.0474,-0.10584 -0.10583,-0.10584 h -0.9525 v -1.05833 h 2.11667 v 2.01083 c 0,0.0584 -0.0474,0.10583 -0.10584,0.10583 z m -13.65248,-0.10583 v -5.07999 c 0,-0.0584 -0.0474,-0.10584 -0.10583,-0.10584 h -5.08 c -0.0584,0 -0.10583,0.0474 -0.10583,0.10584 v 5.07999 c 0,0.0584 0.0474,0.10583 0.10583,0.10583 h 5.08 c 0.0585,0 0.10583,-0.0474 0.10583,-0.10583 z m 15.76915,-0.9525 h -0.84667 c -0.0584,0 -0.10583,-0.0474 -0.10583,-0.10583 v -0.9525 h 0.9525 c 0.0584,0 0.10583,0.0474 0.10583,0.10583 v 0.84667 c 0,0.0584 -0.0474,0.10583 -0.10583,0.10583 z m -16.93332,0 h -2.96332 c -0.0584,0 -0.10584,-0.0474 -0.10584,-0.10583 v -2.96333 c 0,-0.0584 0.0474,-0.10583 0.10584,-0.10583 h 2.96332 c 0.0584,0 0.10584,0.0474 0.10584,0.10583 v 2.96333 c 0,0.0584 -0.0474,0.10583 -0.10584,0.10583 z m 7.40833,-1.05833 h -0.9525 v -1.05833 h 1.05833 v 0.9525 c 0,0.0584 -0.0474,0.10583 -0.10583,0.10583 z m 1.05833,-1.05833 h -0.9525 v -1.05833 h 0.9525 c 0.0585,0 0.10583,0.0474 0.10583,0.10583 v 0.9525 z m -2.11666,0 h -0.9525 v -0.9525 c 0,-0.0584 0.0474,-0.10583 0.10583,-0.10583 h 0.9525 v 1.05833 z m 19.04997,-1.05833 h -1.90499 c -0.0584,0 -0.10584,-0.0474 -0.10584,-0.10584 v -0.84666 c 0,-0.0584 0.0474,-0.10584 0.10584,-0.10584 h 1.90499 c 0.0584,0 0.10584,0.0474 0.10584,0.10584 v 0.84666 c 0,0.0584 -0.0474,0.10584 -0.10584,0.10584 z m -5.18582,-0.10584 v -2.96333 c 0,-0.0584 -0.0474,-0.10583 -0.10584,-0.10583 h -2.96333 c -0.0584,0 -0.10583,0.0474 -0.10583,0.10583 v 2.96333 c 0,0.0584 0.0474,0.10584 0.10583,0.10584 h 2.96333 c 0.0585,0 0.10584,-0.0474 0.10584,-0.10584 z m -1.16417,-0.9525 h -0.84666 c -0.0584,0 -0.10584,-0.0474 -0.10584,-0.10583 v -0.84666 c 0,-0.0584 0.0474,-0.10584 0.10584,-0.10584 h 0.84666 c 0.0584,0 0.10583,0.0474 0.10583,0.10584 v 0.84666 c 0,0.0585 -0.0474,0.10583 -0.10583,0.10583 z m -14.81665,-1.05833 h -0.84666 c -0.0585,0 -0.10584,-0.0474 -0.10584,-0.10583 v -0.9525 h 1.05834 v 0.9525 c 0,0.0584 -0.0474,0.10583 -0.10584,0.10583 z m 1.05833,-1.05833 h -0.95249 v -1.05833 h 1.05833 v 0.9525 c 0,0.0584 -0.0474,0.10583 -0.10584,0.10583 z m -2.11666,0 h -8.25499 c -0.0584,0 -0.10583,-0.0474 -0.10583,-0.10583 v -4.02166 c 0,-0.0585 0.0474,-0.10584 0.10583,-0.10584 h 0.84667 c 0.0584,0 0.10583,0.0474 0.10583,0.10584 v 0.84666 c 0,0.0584 0.0474,0.10583 0.10583,0.10583 h 1.905 c 0.0584,0 0.10583,-0.0474 0.10583,-0.10583 v -0.9525 h 0.9525 c 0.0585,0 0.10584,-0.0474 0.10584,-0.10583 v -0.84667 c 0,-0.0584 0.0474,-0.10583 0.10583,-0.10583 h 0.84666 c 0.0584,0 0.10584,0.0474 0.10584,0.10583 v 1.905 c 0,0.0584 0.0474,0.10583 0.10583,0.10583 h 3.06916 v 1.05834 h -2.01083 c -0.0585,0 -0.10583,0.0474 -0.10583,0.10583 v 0.84666 c 0,0.0584 0.0474,0.10584 0.10583,0.10584 h 2.01083 v 1.05833 z m 1.05833,-1.05833 h -0.9525 v -1.05833 h 0.9525 c 0.0584,0 0.10584,0.0474 0.10584,0.10583 v 0.9525 z m -6.24416,-0.10584 v -0.84666 c 0,-0.0584 -0.0474,-0.10583 -0.10583,-0.10583 h -0.84666 c -0.0584,0 -0.10584,0.0474 -0.10584,0.10583 v 0.84666 c 0,0.0584 0.0474,0.10584 0.10584,0.10584 h 0.84666 c 0.0584,0 0.10583,-0.0474 0.10583,-0.10584 z m 27.4108,-0.95249 h -0.84666 c -0.0585,0 -0.10584,-0.0474 -0.10584,-0.10584 v -0.9525 h 0.9525 c 0.0584,0 0.10584,0.0474 0.10584,0.10584 v 0.84666 c 0,0.0584 -0.0474,0.10584 -0.10584,0.10584 z m -7.40832,0 h -0.84667 c -0.0584,0 -0.10583,-0.0474 -0.10583,-0.10584 v -0.9525 h 0.9525 c 0.0584,0 0.10583,0.0474 0.10583,0.10584 v 0.84666 c 0,0.0584 -0.0474,0.10584 -0.10583,0.10584 z m -2.11667,0 h -0.84666 c -0.0585,0 -0.10583,-0.0474 -0.10583,-0.10584 v -0.84666 c 0,-0.0584 -0.0474,-0.10584 -0.10584,-0.10584 h -0.84666 c -0.0584,0 -0.10584,-0.0474 -0.10584,-0.10583 v -1.905 c 0,-0.0584 0.0474,-0.10583 0.10584,-0.10583 h 1.90499 c 0.0584,0 0.10584,-0.0474 0.10584,-0.10583 v -0.84667 c 0,-0.0585 -0.0474,-0.10583 -0.10584,-0.10583 h -0.84666 c -0.0585,0 -0.10583,-0.0474 -0.10583,-0.10584 v -0.95249 h 2.01083 c 0.0584,0 0.10583,-0.0474 0.10583,-0.10584 v -0.84666 c 0,-0.0584 0.0474,-0.10584 0.10583,-0.10584 h 0.84667 c 0.0584,0 0.10583,-0.0474 0.10583,-0.10583 v -0.84666 c 0,-0.0584 -0.0474,-0.10584 -0.10583,-0.10584 h -2.01083 v -2.11666 h 0.9525 c 0.0584,0 0.10583,0.0474 0.10583,0.10583 v 0.84667 c 0,0.0584 0.0474,0.10583 0.10583,0.10583 h 1.905 c 0.0584,0 0.10583,-0.0474 0.10583,-0.10583 v -2.01083 h 2.01083 c 0.0584,0 0.10584,0.0474 0.10584,0.10583 v 0.84666 c 0,0.0584 -0.0474,0.10584 -0.10584,0.10584 h -0.84666 c -0.0584,0 -0.10583,0.0474 -0.10583,0.10583 v 0.84667 c 0,0.0584 0.0474,0.10583 0.10583,0.10583 h 2.01083 v 0.9525 c 0,0.0584 -0.0474,0.10583 -0.10583,0.10583 h -2.96333 c -0.0584,0 -0.10584,0.0474 -0.10584,0.10584 v 0.84666 c 0,0.0585 0.0474,0.10583 0.10584,0.10583 h 5.07999 c 0.0584,0 0.10583,-0.0474 0.10583,-0.10583 v -1.905 c 0,-0.0584 0.0474,-0.10583 0.10584,-0.10583 h 0.84666 c 0.0584,0 0.10584,0.0474 0.10584,0.10583 v 5.08 c 0,0.0584 -0.0474,0.10583 -0.10584,0.10583 h -0.84666 c -0.0585,0 -0.10584,-0.0474 -0.10584,-0.10583 v -1.905 c 0,-0.0584 -0.0474,-0.10583 -0.10583,-0.10583 h -0.84666 c -0.0584,0 -0.10584,0.0474 -0.10584,0.10583 v 1.905 c 0,0.0584 -0.0474,0.10583 -0.10583,0.10583 h -0.9525 v -2.01083 c 0,-0.0584 -0.0474,-0.10583 -0.10583,-0.10583 h -0.84667 c -0.0584,0 -0.10583,0.0474 -0.10583,0.10583 v 2.01083 h -0.9525 c -0.0584,0 -0.10583,0.0474 -0.10583,0.10583 v 0.9525 h -0.9525 c -0.0584,0 -0.10584,-0.0474 -0.10584,-0.10583 v -2.01083 h 0.9525 c 0.0585,0 0.10584,-0.0474 0.10584,-0.10584 v -0.84666 c 0,-0.0584 -0.0474,-0.10583 -0.10584,-0.10583 h -0.84666 c -0.0584,0 -0.10584,0.0474 -0.10584,0.10583 v 0.9525 h -0.95249 c -0.0584,0 -0.10584,0.0474 -0.10584,0.10583 v 0.84667 c 0,0.0584 -0.0474,0.10583 -0.10583,0.10583 h -0.84667 c -0.0584,0 -0.10583,0.0474 -0.10583,0.10583 v 2.01083 h -0.9525 c -0.0584,0 -0.10583,0.0474 -0.10583,0.10584 v 0.84666 c 0,0.0584 -0.0474,0.10584 -0.10584,0.10584 z m -7.40832,0 h -0.9525 v -1.05834 h 1.05833 v 1.05834 z m 15.87498,-1.05834 h -2.01083 v -1.05833 h 2.01083 c 0.0584,0 0.10583,0.0474 0.10583,0.10584 v 0.95249 z m -3.175,0 h -0.95249 v -1.05833 h 1.05833 v 1.05833 z m -16.93331,0 h -0.9525 v -1.05833 h 1.05834 v 0.9525 c 0,0.0584 -0.0474,0.10583 -0.10584,0.10583 z m 17.99165,-1.05833 h -0.9525 v -1.05833 h 1.05833 v 1.05833 z m -16.93332,0 h -0.95249 v -0.9525 c 0,-0.0584 0.0474,-0.10583 0.10583,-0.10583 h 0.9525 v 0.9525 c 0,0.0584 -0.0474,0.10583 -0.10584,0.10583 z m -2.11666,0 h -1.905 c -0.0585,0 -0.10583,-0.0474 -0.10583,-0.10583 v -0.84667 c 0,-0.0584 0.0474,-0.10583 0.10583,-0.10583 h 1.905 c 0.0584,0 0.10583,0.0474 0.10583,0.10583 v 0.9525 z m -5.29166,0 h -0.84666 c -0.0584,0 -0.10584,-0.0474 -0.10584,-0.10583 v -0.84667 c 0,-0.0584 -0.0474,-0.10583 -0.10583,-0.10583 h -1.905 c -0.0584,0 -0.10583,-0.0474 -0.10583,-0.10583 v -5.08 c 0,-0.0584 0.0474,-0.10583 0.10583,-0.10583 h 0.9525 v 4.12749 c 0,0.0584 0.0474,0.10584 0.10583,0.10584 h 0.84667 c 0.0584,0 0.10583,-0.0474 0.10583,-0.10584 v -0.84666 c 0,-0.0584 0.0474,-0.10583 0.10584,-0.10583 h 1.90499 c 0.0585,0 0.10584,-0.0474 0.10584,-0.10584 v -0.84666 c 0,-0.0584 0.0474,-0.10584 0.10583,-0.10584 h 2.01083 v 1.05834 h -0.9525 c -0.0584,0 -0.10583,0.0474 -0.10583,0.10583 v 0.84666 c 0,0.0584 -0.0474,0.10584 -0.10584,0.10584 h -1.90499 c -0.0584,0 -0.10584,0.0474 -0.10584,0.10583 v 2.01083 z m 14.81665,-1.05833 h -0.9525 v -1.05833 h 1.05833 v 0.9525 c 0,0.0584 -0.0474,0.10583 -0.10583,0.10583 z m -6.34999,0 h -0.9525 v -2.01083 c 0,-0.0584 -0.0474,-0.10583 -0.10584,-0.10583 h -3.06916 v -1.05834 h 0.9525 c 0.0584,0 0.10583,-0.0474 0.10583,-0.10583 v -0.84666 c 0,-0.0584 -0.0474,-0.10584 -0.10583,-0.10584 h -0.9525 v -1.05833 h 2.11667 v 0.9525 c 0,0.0584 0.0474,0.10583 0.10583,0.10583 h 1.905 c 0.0584,0 0.10583,0.0474 0.10583,0.10584 v 4.12749 z m 7.40832,-1.05833 h -0.9525 v -2.11667 h 2.11667 v 1.05834 h -0.9525 c -0.0584,0 -0.10584,0.0474 -0.10584,0.10583 v 0.84666 c 0,0.0584 -0.0474,0.10584 -0.10583,0.10584 z m -2.11666,0 h -1.905 c -0.0584,0 -0.10583,-0.0474 -0.10583,-0.10584 v -0.84666 c 0,-0.0584 -0.0474,-0.10583 -0.10584,-0.10583 h -1.90499 c -0.0584,0 -0.10584,-0.0474 -0.10584,-0.10584 v -0.84666 c 0,-0.0584 0.0474,-0.10584 0.10584,-0.10584 h 4.12749 v 2.11667 z m -9.52499,0 h -0.84667 c -0.0585,0 -0.10583,-0.0474 -0.10583,-0.10584 v -0.95249 h 1.05833 v 0.95249 c 0,0.0584 -0.0474,0.10584 -0.10583,0.10584 z m 13.75831,-2.11667 h -0.95249 v -0.95249 c 0,-0.0584 0.0474,-0.10584 0.10583,-0.10584 h 0.9525 v 0.9525 c 0,0.0585 -0.0474,0.10583 -0.10584,0.10583 z m -3.17499,0 h -0.9525 v -0.95249 c 0,-0.0584 0.0474,-0.10584 0.10583,-0.10584 h 0.9525 v 1.05833 z m -10.58332,0 h -0.9525 v -1.05833 h 1.05833 v 1.05833 z m 11.64165,-1.05833 h -0.9525 v -0.9525 c 0,-0.0584 -0.0474,-0.10583 -0.10583,-0.10583 h -1.905 c -0.0585,0 -0.10583,-0.0474 -0.10583,-0.10583 v -0.84667 c 0,-0.0584 -0.0474,-0.10583 -0.10584,-0.10583 h -0.84666 c -0.0584,0 -0.10583,0.0474 -0.10583,0.10583 v 0.84667 c 0,0.0584 -0.0474,0.10583 -0.10584,0.10583 h -1.90499 c -0.0584,0 -0.10584,-0.0474 -0.10584,-0.10583 v -0.84667 c 0,-0.0584 0.0474,-0.10583 0.10584,-0.10583 h 0.84666 c 0.0585,0 0.10583,-0.0474 0.10583,-0.10584 v -0.95249 h 0.9525 c 0.0584,0 0.10584,-0.0474 0.10584,-0.10584 v -0.9525 h 0.95249 c 0.0585,0 0.10584,-0.0474 0.10584,-0.10583 v -0.9525 h 1.05833 v 3.06916 c 0,0.0584 0.0474,0.10584 0.10583,0.10584 h 0.84667 c 0.0585,0 0.10583,-0.0474 0.10583,-0.10584 v -1.90499 c 0,-0.0585 0.0474,-0.10584 0.10584,-0.10584 h 0.95249 v 0.9525 c 0,0.0584 0.0474,0.10584 0.10584,0.10584 h 1.90499 c 0.0584,0 0.10584,0.0474 0.10584,0.10583 v 0.9525 h -0.9525 c -0.0585,0 -0.10583,0.0474 -0.10583,0.10583 v 0.84667 c 0,0.0584 -0.0474,0.10583 -0.10584,0.10583 h -0.84666 c -0.0584,0 -0.10584,0.0474 -0.10584,0.10583 v 0.84667 c 0,0.0584 -0.0474,0.10583 -0.10583,0.10583 z m -12.69998,0 h -2.96333 c -0.0584,0 -0.10584,-0.0474 -0.10584,-0.10583 v -1.905 c 0,-0.0584 -0.0474,-0.10583 -0.10583,-0.10583 h -0.9525 v -1.05833 h 0.9525 c 0.0584,0 0.10583,-0.0474 0.10583,-0.10584 v -0.84666 c 0,-0.0585 0.0474,-0.10584 0.10584,-0.10584 h 1.90499 c 0.0584,0 0.10584,0.0474 0.10584,0.10584 v 2.96333 c 0,0.0584 0.0474,0.10583 0.10583,0.10583 h 0.9525 v 1.05833 z m 22.22497,-1.05833 h -0.9525 v -2.01083 c 0,-0.0584 0.0474,-0.10583 0.10583,-0.10583 h 2.01083 v 0.95249 c 0,0.0584 -0.0474,0.10584 -0.10583,0.10584 h -0.84666 c -0.0584,0 -0.10584,0.0474 -0.10584,0.10583 v 0.84667 c 0,0.0584 -0.0474,0.10583 -0.10583,0.10583 z m -17.99165,0 h -0.95249 v -0.9525 c 0,-0.0584 0.0474,-0.10583 0.10583,-0.10583 h 0.9525 v 0.9525 c 0,0.0584 -0.0474,0.10583 -0.10584,0.10583 z m -3.17499,0 h -0.9525 v -0.9525 c 0,-0.0584 0.0474,-0.10583 0.10583,-0.10583 h 0.84667 c 0.0584,0 0.10583,0.0474 0.10583,0.10583 v 0.9525 z m -5.29166,0 h -0.9525 v -1.05833 h 1.05833 v 0.9525 c 0,0.0584 -0.0474,0.10583 -0.10583,0.10583 z m 9.52499,-1.05833 h -0.9525 v -1.05833 h 0.9525 c 0.0584,0 0.10583,0.0474 0.10583,0.10583 v 0.84666 c 0,0.0584 -0.0474,0.10584 -0.10583,0.10584 z m -10.58332,0 h -0.84667 c -0.0584,0 -0.10583,-0.0474 -0.10583,-0.10584 v -1.90499 c 0,-0.0585 0.0474,-0.10584 0.10583,-0.10584 h 1.905 c 0.0584,0 0.10583,0.0474 0.10583,0.10584 v 0.9525 h -0.9525 c -0.0584,0 -0.10583,0.0474 -0.10583,0.10583 v 0.9525 z m 29.63329,-1.05833 h -0.9525 v -0.9525 c 0,-0.0585 0.0474,-0.10584 0.10584,-0.10584 h 0.84666 c 0.0584,0 0.10584,0.0474 0.10584,0.10584 v 0.84666 c 0,0.0584 -0.0474,0.10584 -0.10584,0.10584 z m -6.34999,0 h -0.84666 c -0.0584,0 -0.10584,-0.0474 -0.10584,-0.10584 v -0.84666 c 0,-0.0585 0.0474,-0.10584 0.10584,-0.10584 h 0.84666 c 0.0584,0 0.10583,0.0474 0.10583,0.10584 v 0.9525 z m -10.58332,0 h -0.84666 c -0.0584,0 -0.10584,-0.0474 -0.10584,-0.10584 v -3.06916 h 0.9525 c 0.0585,0 0.10583,0.0474 0.10583,0.10583 v 0.84667 c 0,0.0584 0.0474,0.10583 0.10584,0.10583 h 0.9525 v 1.05833 h -0.9525 c -0.0584,0 -0.10584,0.0474 -0.10584,0.10584 v 0.9525 z m -3.175,0 h -0.84666 c -0.0584,0 -0.10583,-0.0474 -0.10583,-0.10584 v -0.84666 c 0,-0.0585 -0.0474,-0.10584 -0.10584,-0.10584 h -0.84666 c -0.0585,0 -0.10584,-0.0474 -0.10584,-0.10583 v -1.905 c 0,-0.0585 0.0474,-0.10583 0.10584,-0.10583 h 0.9525 v 0.9525 c 0,0.0584 0.0474,0.10583 0.10583,0.10583 h 0.9525 v 2.11667 z m -3.17499,0 h -0.84667 c -0.0585,0 -0.10583,-0.0474 -0.10583,-0.10584 v -0.84666 c 0,-0.0585 0.0474,-0.10584 0.10583,-0.10584 h 0.84667 c 0.0584,0 0.10583,0.0474 0.10583,0.10584 v 0.84666 c 0,0.0584 -0.0474,0.10584 -0.10583,0.10584 z m 14.81665,-1.05834 h -3.06917 v -2.01083 c 0,-0.0585 0.0474,-0.10583 0.10584,-0.10583 h 0.84666 c 0.0584,0 0.10584,0.0474 0.10584,0.10583 v 0.84667 c 0,0.0584 0.0474,0.10583 0.10583,0.10583 h 0.84666 c 0.0584,0 0.10584,-0.0474 0.10584,-0.10583 v -0.84667 c 0,-0.0585 0.0474,-0.10583 0.10583,-0.10583 h 0.84667 c 0.0584,0 0.10583,0.0474 0.10583,0.10583 v 1.905 c 0,0.0584 -0.0474,0.10583 -0.10583,0.10583 z m 8.46665,-1.05833 h -7.19665 c -0.0584,0 -0.10584,-0.0474 -0.10584,-0.10583 v -7.19666 c 0,-0.0584 0.0474,-0.10583 0.10584,-0.10583 h 7.19665 c 0.0584,0 0.10584,0.0474 0.10584,0.10583 v 7.19666 c 0,0.0584 -0.0474,0.10583 -0.10584,0.10583 z m -12.69998,0 h -0.9525 v -3.06916 c 0,-0.0585 -0.0474,-0.10583 -0.10583,-0.10583 h -0.9525 v -0.9525 c 0,-0.0584 -0.0474,-0.10584 -0.10584,-0.10584 h -0.84666 c -0.0584,0 -0.10583,0.0474 -0.10583,0.10584 v 0.84666 c 0,0.0585 0.0474,0.10584 0.10583,0.10584 h 0.9525 v 0.95249 c 0,0.0584 -0.0474,0.10584 -0.10584,0.10584 h -2.96332 c -0.0584,0 -0.10584,0.0474 -0.10584,0.10583 v 0.9525 h -1.05833 v -0.9525 c 0,-0.0584 -0.0474,-0.10583 -0.10583,-0.10583 h -0.9525 v -2.11667 h 0.9525 c 0.0584,0 0.10583,-0.0474 0.10583,-0.10583 v -1.905 c 0,-0.0584 -0.0474,-0.10583 -0.10583,-0.10583 h -2.96333 c -0.0585,0 -0.10584,-0.0474 -0.10584,-0.10583 v -0.84667 c 0,-0.0584 0.0474,-0.10583 0.10584,-0.10583 h 4.02166 c 0.0584,0 0.10583,0.0474 0.10583,0.10583 v 0.84667 c 0,0.0584 0.0474,0.10583 0.10584,0.10583 h 0.95249 v 1.05833 h -0.95249 c -0.0584,0 -0.10584,0.0474 -0.10584,0.10584 v 1.90499 c 0,0.0585 0.0474,0.10584 0.10584,0.10584 h 0.84666 c 0.0585,0 0.10583,-0.0474 0.10583,-0.10584 v -2.01083 h 0.9525 c 0.0584,0 0.10584,-0.0474 0.10584,-0.10583 v -0.9525 h 0.95249 c 0.0585,0 0.10584,0.0474 0.10584,0.10583 v 0.84667 c 0,0.0585 0.0474,0.10583 0.10583,0.10583 h 0.84667 c 0.0584,0 0.10583,-0.0474 0.10583,-0.10583 v -0.84667 c 0,-0.0584 0.0474,-0.10583 0.10583,-0.10583 h 0.84667 c 0.0585,0 0.10583,-0.0474 0.10583,-0.10583 v -0.84667 c 0,-0.0584 0.0474,-0.10583 0.10584,-0.10583 h 1.90499 c 0.0584,0 0.10584,0.0474 0.10584,0.10583 v 0.84667 c 0,0.0584 0.0474,0.10583 0.10583,0.10583 h 0.84666 c 0.0584,0 0.10584,0.0474 0.10584,0.10583 v 0.84667 c 0,0.0585 0.0474,0.10583 0.10583,0.10583 h 0.84667 c 0.0584,0 0.10583,0.0474 0.10583,0.10584 v 0.84666 c 0,0.0584 -0.0474,0.10583 -0.10583,0.10583 h -1.905 c -0.0585,0 -0.10583,0.0474 -0.10583,0.10584 v 0.84666 c 0,0.0585 0.0474,0.10584 0.10583,0.10584 h 0.84666 c 0.0584,0 0.10584,0.0474 0.10584,0.10583 v 0.84666 c 0,0.0584 -0.0474,0.10584 -0.10584,0.10584 h -1.90499 c -0.0584,0 -0.10584,-0.0474 -0.10584,-0.10584 v -0.84666 c 0,-0.0585 -0.0474,-0.10583 -0.10583,-0.10583 h -0.84666 c -0.0585,0 -0.10584,0.0474 -0.10584,0.10583 v 2.96333 c 0,0.0584 -0.0474,0.10583 -0.10583,0.10583 z m -2.11667,0 h -0.95249 v -0.9525 c 0,-0.0585 0.0474,-0.10583 0.10583,-0.10583 h 0.84666 c 0.0585,0 0.10584,0.0474 0.10584,0.10583 v 0.9525 z m -4.23332,0 h -0.9525 v -1.05833 h 1.05833 v 0.9525 c 0,0.0584 -0.0474,0.10583 -0.10583,0.10583 z m -4.23333,0 h -7.19666 c -0.0584,0 -0.10583,-0.0474 -0.10583,-0.10583 v -7.19666 c 0,-0.0584 0.0474,-0.10583 0.10583,-0.10583 h 7.19666 c 0.0584,0 0.10583,0.0474 0.10583,0.10583 v 7.19666 c 0,0.0584 -0.0474,0.10583 -0.10583,0.10583 z m 22.3308,-1.16416 v -5.08 c 0,-0.0584 -0.0474,-0.10583 -0.10583,-0.10583 h -5.07999 c -0.0584,0 -0.10584,0.0474 -0.10584,0.10583 v 5.08 c 0,0.0585 0.0474,0.10583 0.10584,0.10583 h 5.07999 c 0.0584,0 0.10583,-0.0474 0.10583,-0.10583 z m -19.15581,0.10583 h -0.95249 v -0.9525 c 0,-0.0584 0.0474,-0.10583 0.10583,-0.10583 h 0.9525 v 1.05833 z m -4.12749,-0.10583 v -5.08 c 0,-0.0584 -0.0474,-0.10583 -0.10583,-0.10583 h -5.08 c -0.0584,0 -0.10583,0.0474 -0.10583,0.10583 v 5.08 c 0,0.0585 0.0474,0.10583 0.10583,0.10583 h 5.08 c 0.0585,0 0.10583,-0.0474 0.10583,-0.10583 z m 22.11914,-0.9525 h -2.96333 c -0.0584,0 -0.10583,-0.0474 -0.10583,-0.10584 v -2.96332 c 0,-0.0584 0.0474,-0.10584 0.10583,-0.10584 h 2.96333 c 0.0584,0 0.10583,0.0474 0.10583,0.10584 v 2.96332 c 0,0.0584 -0.0474,0.10584 -0.10583,0.10584 z m -23.28331,0 h -2.96332 c -0.0584,0 -0.10584,-0.0474 -0.10584,-0.10584 v -2.96332 c 0,-0.0584 0.0474,-0.10584 0.10584,-0.10584 h 2.96332 c 0.0584,0 0.10584,0.0474 0.10584,0.10584 v 2.96332 c 0,0.0584 -0.0474,0.10584 -0.10584,0.10584 z m 13.86415,-2.2225 v -0.84666 c 0,-0.0584 -0.0474,-0.10584 -0.10583,-0.10584 h -0.84666 c -0.0585,0 -0.10584,0.0474 -0.10584,0.10584 v 0.84666 c 0,0.0584 0.0474,0.10583 0.10584,0.10583 h 0.84666 c 0.0584,0 0.10583,-0.0474 0.10583,-0.10583 z m -8.57249,0.10583 h -0.84666 c -0.0584,0 -0.10583,-0.0474 -0.10583,-0.10583 v -0.84666 c 0,-0.0584 0.0474,-0.10584 0.10583,-0.10584 h 0.84666 c 0.0584,0 0.10584,0.0474 0.10584,0.10584 v 0.95249 z m 4.23333,-2.11666 h -0.9525 v -0.9525 c 0,-0.0584 0.0474,-0.10583 0.10584,-0.10583 h 0.84666 c 0.0584,0 0.10584,0.0474 0.10584,0.10583 v 0.9525 z"
       id="path194"
       style="stroke-width:0.264583;stroke:none;fill:#eeeeee;fill-opacity:1" />
  </g>
</svg>
